#!OML:ASF H:\GeneralSubjects\Female5\Project 1\Capture day 1\Session 1\Female5.ASF
:FULLY-SPECIFIED
:DEGREES
199
root 8.50987 16.0262 2.67325 -187.552 -53.9723 -158.82
lowerback 8.91469 2.02019 -1.34531
upperback -9.59733 2.56211 2.84417
thorax -15.9936 1.42134 3.43557
lowerneck -14.1954 -11.5369 -13.8232
upperneck 30.3618 -17.1432 7.84902
head 14.8168 -8.48946 2.25807
rclavicle -2.8128e-014 -1.74931e-014
rhumerus 39.4952 32.4222 -23.4774
rradius 39.1671
rwrist 2.9784
rhand -29.4763 -23.0726
rfingers 7.12502
rthumb -2.8117 -53.0338
lclavicle -2.8128e-014 -1.74931e-014
lhumerus -30.9092 -43.327 92.8282
lradius 84.4691
lwrist -22.2102
lhand -27.1323 19.9306
lfingers 7.12502
lthumb -0.547891 49.9096
rfemur -4.14424 3.10996 42.2664
rtibia 1.82426
rfoot -23.2804 -19.3183
rtoes 0.724947
lfemur -19.0553 -5.64978 -7.40964
ltibia 21.9113
lfoot -27.4811 5.89974
ltoes -53.7275
200
root 8.53132 16.0326 2.63623 -189.331 -56.9296 -156.803
lowerback 9.18414 1.48212 -1.66347
upperback -9.54229 1.85554 3.48998
thorax -16.0949 1.18504 4.51477
lowerneck -14.5697 -11.6104 -14.1193
upperneck 30.1936 -16.634 6.92096
head 14.6779 -8.36318 2.02712
rclavicle 1.17283e-014 4.77083e-015
rhumerus 37.4103 31.9654 -25.5734
rradius 41.845
rwrist 6.20134
rhand -29.2863 -21.7637
rfingers 7.12502
rthumb -2.62824 -51.7273
lclavicle 1.17283e-014 4.77083e-015
lhumerus -32.5199 -41.1734 93.8206
lradius 85.28
lwrist -22.2921
lhand -27.3276 20.031
lfingers 7.12502
lthumb -0.736486 50.0095
rfemur -3.91632 2.70524 42.6432
rtibia 0.764653
rfoot -24.6472 -20.808
rtoes 1.28988
lfemur -21.1021 -6.4095 -7.09327
ltibia 23.1068
lfoot -25.7811 5.27241
ltoes -53.9874
201
root 8.54118 16.0272 2.60042 -190.996 -59.8734 -155.043
lowerback 9.27545 0.939096 -2.04133
upperback -9.4639 1.1186 4.05367
thorax -16.0196 0.931601 5.54767
lowerneck -13.8838 -11.7434 -14.9518
upperneck 29.5437 -16.3669 6.41784
head 14.2443 -8.39572 2.06055
rclavicle 4.47266e-014 -5.56597e-015
rhumerus 35.8109 31.9527 -26.722
rradius 44.2349
rwrist 8.32593
rhand -28.2442 -20.913
rfingers 7.12502
rthumb -1.62179 -50.8865
lclavicle 4.47266e-014 -5.56597e-015
lhumerus -34.0947 -38.9844 94.5115
lradius 85.6793
lwrist -22.7158
lhand -27.4551 20.0558
lfingers 7.12502
lthumb -0.859681 50.0338
rfemur -3.50943 2.69411 42.7125
rtibia -0.45144
rfoot -26.8633 -22.2456
rtoes 4.10671
lfemur -23.2444 -7.17114 -7.33204
ltibia 24.7527
lfoot -24.1493 5.11509
ltoes -55.052
202
root 8.54606 16.0132 2.57537 -192.433 -62.7362 -153.638
lowerback 9.4385 0.44485 -2.34182
upperback -9.41183 0.433346 4.35947
thorax -15.9933 0.675238 6.23187
lowerneck -13.4575 -11.9342 -15.7234
upperneck 29.0456 -16.2622 6.04429
head 13.9707 -8.4636 2.08277
rclavicle 6.06293e-015 2.8625e-014
rhumerus 34.2794 32.0869 -27.6353
rradius 46.3159
rwrist 8.66581
rhand -27.1004 -19.9796
rfingers 7.12502
rthumb -0.517073 -49.9587
lclavicle 6.06293e-015 2.8625e-014
lhumerus -35.8132 -37.2606 94.8284
lradius 85.7913
lwrist -23.0003
lhand -27.6949 20.2828
lfingers 7.12502
lthumb -1.09121 50.2597
rfemur -3.00269 3.0995 42.4698
rtibia -1.72776
rfoot -29.6356 -23.8192
rtoes 7.96858
lfemur -25.5524 -7.83331 -8.12773
ltibia 26.9926
lfoot -22.834 4.95968
ltoes -56.2147
203
root 8.55109 15.9937 2.56481 -194.025 -65.3668 -152.009
lowerback 9.64389 0.0108931 -2.23049
upperback -9.40425 -0.125009 4.45377
thorax -16.0404 0.415797 6.41081
lowerneck -13.4878 -12.1226 -16.111
upperneck 28.7973 -16.2192 5.66447
head 13.8697 -8.50514 2.00267
rclavicle -2.9122e-014 -3.97569e-015
rhumerus 32.9225 32.3383 -28.3403
rradius 47.8148
rwrist 8.47308
rhand -25.9215 -18.3486
rfingers 7.12502
rthumb 0.621589 -48.3275
lclavicle -2.9122e-014 -3.97569e-015
lhumerus -37.4926 -36.1371 94.712
lradius 85.5635
lwrist -23.1523
lhand -28.0977 20.6522
lfingers 7.12502
lthumb -1.48026 50.6268
rfemur -2.62738 3.56602 42.2436
rtibia -2.92051
rfoot -31.9583 -25.6529
rtoes 10.2242
lfemur -28.0701 -8.19206 -9.05905
ltibia 29.6122
lfoot -21.8016 4.98418
ltoes -57.4624
204
root 8.55498 15.9752 2.56162 -195.709 -67.5203 -150.229
lowerback 9.74536 -0.329801 -1.88707
upperback -9.35191 -0.522759 4.47363
thorax -15.9835 0.193549 6.32653
lowerneck -13.0675 -12.2656 -16.3696
upperneck 28.2718 -16.2875 5.51661
head 13.5813 -8.57106 2.00543
rclavicle 4.64659e-015 1.47101e-014
rhumerus 32.0242 32.9548 -28.3946
rradius 48.9371
rwrist 8.03127
rhand -24.8674 -16.7319
rfingers 7.12502
rthumb 1.63965 -46.7054
lclavicle 4.64659e-015 1.47101e-014
lhumerus -38.6766 -35.3305 94.1163
lradius 85.0176
lwrist -23.478
lhand -28.0532 20.9223
lfingers 7.12502
lthumb -1.43727 50.8972
rfemur -2.43411 4.16635 42.0978
rtibia -3.77241
rfoot -33.9164 -27.4329
rtoes 11.1014
lfemur -30.3891 -7.99726 -10.0451
ltibia 32.0507
lfoot -21.0388 5.35535
ltoes -58.5122
205
root 8.56182 15.9625 2.55725 -196.894 -68.935 -148.977
lowerback 9.88817 -0.454346 -1.70822
upperback -9.31625 -0.652446 4.49245
thorax -16.0144 0.118127 6.27886
lowerneck -12.8993 -12.3447 -16.5226
upperneck 28.0177 -16.258 5.27431
head 13.4289 -8.59322 1.95691
rclavicle 3.08613e-014 -3.93594e-014
rhumerus 31.2651 34.0007 -28.0614
rradius 50.0897
rwrist 7.40017
rhand -24.0976 -15.8837
rfingers 7.12502
rthumb 2.3831 -45.8501
lclavicle 3.08613e-014 -3.93594e-014
lhumerus -39.8795 -34.5598 93.4779
lradius 84.5106
lwrist -23.6719
lhand -28.0548 20.3948
lfingers 7.12502
lthumb -1.43886 50.3697
rfemur -2.39854 5.04895 41.9636
rtibia -4.09611
rfoot -36.0027 -28.3604
rtoes 12.9002
lfemur -32.1348 -7.07653 -11.1007
ltibia 34.0135
lfoot -20.8376 5.16101
ltoes -57.9588
206
root 8.56813 15.9538 2.55447 -197.774 -69.7737 -147.966
lowerback 10.1189 -0.365728 -1.49479
upperback -9.42363 -0.492568 4.48127
thorax -16.3187 0.178887 6.12617
lowerneck -12.7713 -12.4035 -16.6252
upperneck 28.0812 -16.256 4.99947
head 13.4137 -8.63709 1.87372
rclavicle 3.1408e-014 4.45278e-014
rhumerus 30.2017 35.3144 -27.9376
rradius 51.2807
rwrist 6.77647
rhand -23.5394 -15.5804
rfingers 7.12502
rthumb 2.92217 -45.5401
lclavicle 3.1408e-014 4.45278e-014
lhumerus -41.4987 -33.8284 93.0698
lradius 84.1676
lwrist -23.9013
lhand -28.4612 19.3693
lfingers 7.12502
lthumb -1.83137 49.3412
rfemur -2.53848 5.71942 41.9404
rtibia -4.07812
rfoot -37.5513 -28.6496
rtoes 14.7955
lfemur -33.4175 -5.80798 -11.9787
ltibia 35.4038
lfoot -20.8575 4.54902
ltoes -56.2252
207
root 8.56233 15.9448 2.55692 -198.806 -70.3163 -146.751
lowerback 9.70583 -0.232918 -1.10582
upperback -9.14292 -0.237213 4.46561
thorax -15.7279 0.232171 5.78545
lowerneck -13.3163 -12.5789 -16.4288
upperneck 28.1312 -16.3895 4.87975
head 13.5304 -8.65696 1.7383
rclavicle -1.62631e-014 -2.62396e-014
rhumerus 29.5104 35.9552 -27.933
rradius 52.3879
rwrist 6.35759
rhand -22.958 -15.1037
rfingers 7.12502
rthumb 3.48367 -45.055
lclavicle -1.62631e-014 -2.62396e-014
lhumerus -42.3156 -33.3057 92.3166
lradius 83.7919
lwrist -25.6551
lhand -29.019 21.1982
lfingers 7.12502
lthumb -2.37005 51.1648
rfemur -2.66609 5.89551 42.0571
rtibia -4.05936
rfoot -38.1763 -28.9101
rtoes 15.3086
lfemur -34.1287 -4.65854 -12.52
ltibia 35.9083
lfoot -20.6579 4.48483
ltoes -55.438
208
root 8.54627 15.9357 2.56703 -199.788 -70.7716 -145.596
lowerback 9.54245 -0.0395625 -0.631839
upperback -9.02493 0.100269 4.36384
thorax -15.5066 0.323008 5.30574
lowerneck -12.708 -12.7713 -16.4274
upperneck 27.5656 -16.8388 5.28441
head 13.2666 -8.81095 1.85267
rclavicle -5.7896e-015 -1.51076e-014
rhumerus 28.2063 36.6303 -28.5125
rradius 53.6628
rwrist 6.47464
rhand -22.5839 -14.3188
rfingers 7.12502
rthumb 3.84489 -44.2638
lclavicle -5.7896e-015 -1.51076e-014
lhumerus -43.3231 -32.5483 91.6384
lradius 83.7286
lwrist -25.8651
lhand -29.3799 22.3967
lfingers 7.12502
lthumb -2.71859 52.3592
rfemur -2.74589 5.71876 42.1108
rtibia -4.10719
rfoot -38.4918 -28.9516
rtoes 15.4298
lfemur -34.2604 -3.97372 -12.8089
ltibia 35.5132
lfoot -20.2066 4.65344
ltoes -55.5664
